<?xml version="1.0" encoding="utf-8" ?>
<svg baseProfile="full" height="500" version="1.1" width="500" xmlns="http://www.w3.org/2000/svg" xmlns:ev="http://www.w3.org/2001/xml-events" xmlns:xlink="http://www.w3.org/1999/xlink"><defs /><rect fill="blue" fill-opacity="0" height="100%" width="100%" x="0" y="0" /><path d="M263.11372566047976,255.4051878137281 L250.0,250.0" fill="none" stroke="white" stroke-linecap="round" stroke-width="3" /><path d="M250.0,250.0 A0.0,0.0 0 0 0 250.0,250.0" fill="none" stroke="white" stroke-linecap="round" stroke-width="3" /><path d="M284.6296618359912,237.0838039220173 L250.0,250.0" fill="none" stroke="white" stroke-linecap="round" stroke-width="3" /><path d="M250.0,250.0 A0.0,0.0 0 0 0 250.0,250.0" fill="none" stroke="white" stroke-linecap="round" stroke-width="3" /><path d="M490.0,250.0 L264.184,250.0" fill="none" stroke="white" stroke-linecap="round" stroke-width="3" /><path d="M263.11372566047976,255.4051878137281 A14.184000000000005,14.184000000000005 0 0 0 264.184,250.0" fill="none" stroke="white" stroke-linecap="round" stroke-width="3" /><path d="M283.0542146837478,282.82511154041543 L260.06442085424777,259.99466301926094" fill="none" stroke="white" stroke-linecap="round" stroke-width="3" /><path d="M263.11372566047976,255.4051878137281 A14.184000000000005,14.184000000000005 0 0 1 260.06442085424777,259.99466301926094" fill="none" stroke="white" stroke-linecap="round" stroke-width="3" /><path d="M346.7483103779777,197.17142569587466 L282.43901545440576,232.2869574508267" fill="none" stroke="white" stroke-linecap="round" stroke-width="3" /><path d="M284.6296618359912,237.0838039220173 A36.96000000000003,36.96000000000003 0 0 0 282.43901545440576,232.2869574508267" fill="none" stroke="white" stroke-linecap="round" stroke-width="3" /><path d="M479.80149135163344,200.00974546408924 L286.11534816629404,242.14358689812198" fill="none" stroke="white" stroke-linecap="round" stroke-width="3" /><path d="M284.6296618359912,237.0838039220173 A36.96000000000003,36.96000000000003 0 0 1 286.11534816629404,242.14358689812198" fill="none" stroke="white" stroke-linecap="round" stroke-width="3" /><path d="M356.6916241737654,277.23141338902576 L295.1369752661897,261.5205260218176" fill="none" stroke="white" stroke-linecap="round" stroke-width="3" /><path d="M283.0542146837478,282.82511154041543 A46.58400000000001,46.58400000000001 0 0 0 295.1369752661897,261.5205260218176" fill="none" stroke="white" stroke-linecap="round" stroke-width="3" /><path d="M270.80889379042327,329.22477947724997 L261.83418190659586,295.05575650903666" fill="none" stroke="white" stroke-linecap="round" stroke-width="3" /><path d="M283.0542146837478,282.82511154041543 A46.58400000000001,46.58400000000001 0 0 1 261.83418190659586,295.05575650903666" fill="none" stroke="white" stroke-linecap="round" stroke-width="3" /><path d="M451.9008478794834,120.24620381065645 L342.73305943104674,190.4040814102345" fill="none" stroke="white" stroke-linecap="round" stroke-width="3" /><path d="M346.7483103779777,197.17142569587466 A110.232,110.232 0 0 0 342.73305943104674,190.4040814102345" fill="none" stroke="white" stroke-linecap="round" stroke-width="3" /><path d="M468.31167888508435,150.30039687954726 L350.27055411191924,204.20797228677606" fill="none" stroke="white" stroke-linecap="round" stroke-width="3" /><path d="M346.7483103779777,197.17142569587466 A110.232,110.232 0 0 1 350.27055411191924,204.20797228677606" fill="none" stroke="white" stroke-linecap="round" stroke-width="3" /><path d="M480.2783136674794,182.38418635805687 L475.64971956276304,183.74326421225993" fill="none" stroke="white" stroke-linecap="round" stroke-width="3" /><path d="M479.80149135163344,200.00974546408924 A235.17600000000002,235.17600000000002 0 0 0 475.64971956276304,183.74326421225993" fill="none" stroke="white" stroke-linecap="round" stroke-width="3" /><path d="M487.55714605142384,215.84443881441152 L482.78224741579015,216.53096559424185" fill="none" stroke="white" stroke-linecap="round" stroke-width="3" /><path d="M479.80149135163344,200.00974546408924 A235.17600000000002,235.17600000000002 0 0 1 482.78224741579015,216.53096559424185" fill="none" stroke="white" stroke-linecap="round" stroke-width="3" /><path d="M487.55714605142384,284.15556118558845 L358.99121860839324,265.670571471948" fill="none" stroke="white" stroke-linecap="round" stroke-width="3" /><path d="M356.6916241737654,277.23141338902576 A110.11200000000004,110.11200000000004 0 0 0 358.99121860839324,265.670571471948" fill="none" stroke="white" stroke-linecap="round" stroke-width="3" /><path d="M380.6707564473668,298.73767234360866 L353.16940811917374,288.4801997440159" fill="none" stroke="white" stroke-linecap="round" stroke-width="3" /><path d="M356.6916241737654,277.23141338902576 A110.11200000000004,110.11200000000004 0 0 1 353.16940811917374,288.4801997440159" fill="none" stroke="white" stroke-linecap="round" stroke-width="3" /><path d="M386.2202084684628,376.825506917215 L309.9509441009495,305.8163062680148" fill="none" stroke="white" stroke-linecap="round" stroke-width="3" /><path d="M270.80889379042327,329.22477947724997 A81.91200000000002,81.91200000000002 0 0 0 309.9509441009495,305.8163062680148" fill="none" stroke="white" stroke-linecap="round" stroke-width="3" /><path d="M222.55076828535744,336.46767071152004 L225.21581274019178,328.0725291371476" fill="none" stroke="white" stroke-linecap="round" stroke-width="3" /><path d="M270.80889379042327,329.22477947724997 A81.91200000000002,81.91200000000002 0 0 1 225.21581274019178,328.0725291371476" fill="none" stroke="white" stroke-linecap="round" stroke-width="3" /><path d="M480.2783136674794,317.61581364194313 L383.8147280721723,289.2915493073331" fill="none" stroke="white" stroke-linecap="round" stroke-width="3" /><path d="M380.6707564473668,298.73767234360866 A139.46400000000003,139.46400000000003 0 0 0 383.8147280721723,289.2915493073331" fill="none" stroke="white" stroke-linecap="round" stroke-width="3" /><path d="M468.31167888508435,349.69960312045276 L376.8609166001225,307.9354393732951" fill="none" stroke="white" stroke-linecap="round" stroke-width="3" /><path d="M380.6707564473668,298.73767234360866 A139.46400000000003,139.46400000000003 0 0 1 376.8609166001225,307.9354393732951" fill="none" stroke="white" stroke-linecap="round" stroke-width="3" /><path d="M436.9039646010923,389.91455535573715 L398.99673576084194,361.53755929109184" fill="none" stroke="white" stroke-linecap="round" stroke-width="3" /><path d="M386.2202084684628,376.825506917215 A186.12000000000003,186.12000000000003 0 0 0 398.99673576084194,361.53755929109184" fill="none" stroke="white" stroke-linecap="round" stroke-width="3" /><path d="M407.1665761468684,431.379897845022 L371.8826798018964,390.66011077881456" fill="none" stroke="white" stroke-linecap="round" stroke-width="3" /><path d="M386.2202084684628,376.825506917215 A186.12000000000003,186.12000000000003 0 0 1 371.8826798018964,390.66011077881456" fill="none" stroke="white" stroke-linecap="round" stroke-width="3" /><path d="M262.25252400442884,355.12840365724617 L260.5021634323676,340.1100602776396" fill="none" stroke="white" stroke-linecap="round" stroke-width="3" /><path d="M222.55076828535744,336.46767071152004 A90.72,90.72 0 0 0 260.5021634323676,340.1100602776396" fill="none" stroke="white" stroke-linecap="round" stroke-width="3" /><path d="M185.25032801835246,322.23594702271885 L189.44736266931525,317.5536565427702" fill="none" stroke="white" stroke-linecap="round" stroke-width="3" /><path d="M222.55076828535744,336.46767071152004 A90.72,90.72 0 0 1 189.44736266931525,317.5536565427702" fill="none" stroke="white" stroke-linecap="round" stroke-width="3" /><path d="M451.9008478794835,379.75379618934335 L446.4091448171615,376.22449293299326" fill="none" stroke="white" stroke-linecap="round" stroke-width="3" /><path d="M436.9039646010923,389.91455535573715 A233.472,233.472 0 0 0 446.4091448171615,376.22449293299326" fill="none" stroke="white" stroke-linecap="round" stroke-width="3" /><path d="M431.379897845022,407.1665761468684 L426.44636462363746,402.89164527567357" fill="none" stroke="white" stroke-linecap="round" stroke-width="3" /><path d="M436.9039646010923,389.91455535573715 A233.472,233.472 0 0 1 426.44636462363746,402.89164527567357" fill="none" stroke="white" stroke-linecap="round" stroke-width="3" /><path d="M287.7939536293963,370.70131510907015 L281.62643937488383,351.0043263056925" fill="none" stroke="white" stroke-linecap="round" stroke-width="3" /><path d="M262.25252400442884,355.12840365724617 A105.83999999999997,105.83999999999997 0 0 0 281.62643937488383,351.0043263056925" fill="none" stroke="white" stroke-linecap="round" stroke-width="3" /><path d="M235.46050375053088,453.28872057448655 L242.44946085019325,355.5703318103492" fill="none" stroke="white" stroke-linecap="round" stroke-width="3" /><path d="M262.25252400442884,355.12840365724617 A105.83999999999997,105.83999999999997 0 0 1 242.44946085019325,355.5703318103492" fill="none" stroke="white" stroke-linecap="round" stroke-width="3" /><path d="M194.23390407629427,399.514689316562 L216.09917886545065,340.8916189227769" fill="none" stroke="white" stroke-linecap="round" stroke-width="3" /><path d="M185.25032801835246,322.23594702271885 A97.00799999999998,97.00799999999998 0 0 0 216.09917886545065,340.8916189227769" fill="none" stroke="white" stroke-linecap="round" stroke-width="3" /><path d="M150.84514388041367,299.89303065463287 L163.34401547343396,293.6038118715732" fill="none" stroke="white" stroke-linecap="round" stroke-width="3" /><path d="M185.25032801835246,322.23594702271885 A97.00799999999998,97.00799999999998 0 0 1 163.34401547343396,293.6038118715732" fill="none" stroke="white" stroke-linecap="round" stroke-width="3" /><path d="M311.07289214095647,372.008095819659 L306.6146247287319,363.10161213185626" fill="none" stroke="white" stroke-linecap="round" stroke-width="3" /><path d="M287.7939536293963,370.70131510907015 A126.48000000000002,126.48000000000002 0 0 0 306.6146247287319,363.10161213185626" fill="none" stroke="white" stroke-linecap="round" stroke-width="3" /><path d="M284.15556118558845,487.55714605142384 L267.99998074480516,375.19261596910036" fill="none" stroke="white" stroke-linecap="round" stroke-width="3" /><path d="M287.7939536293963,370.70131510907015 A126.48000000000002,126.48000000000002 0 0 1 267.99998074480516,375.19261596910036" fill="none" stroke="white" stroke-linecap="round" stroke-width="3" /><path d="M250.00000000000003,490.0 L250.0,453.808" fill="none" stroke="white" stroke-linecap="round" stroke-width="3" /><path d="M235.46050375053088,453.28872057448655 A203.808,203.808 0 0 0 250.0,453.808" fill="none" stroke="white" stroke-linecap="round" stroke-width="3" /><path d="M215.84443881441155,487.55714605142384 L220.99509744119828,451.7335284268691" fill="none" stroke="white" stroke-linecap="round" stroke-width="3" /><path d="M235.46050375053088,453.28872057448655 A203.808,203.808 0 0 1 220.99509744119828,451.7335284268691" fill="none" stroke="white" stroke-linecap="round" stroke-width="3" /><path d="M182.38418635805687,480.27831366747944 L205.04224550947202,403.11205075750706" fill="none" stroke="white" stroke-linecap="round" stroke-width="3" /><path d="M194.23390407629427,399.514689316562 A159.57600000000002,159.57600000000002 0 0 0 205.04224550947202,403.11205075750706" fill="none" stroke="white" stroke-linecap="round" stroke-width="3" /><path d="M150.3003968795473,468.3116788850844 L183.709733885211,395.1554352906926" fill="none" stroke="white" stroke-linecap="round" stroke-width="3" /><path d="M194.23390407629427,399.514689316562 A159.57600000000002,159.57600000000002 0 0 1 183.709733885211,395.1554352906926" fill="none" stroke="white" stroke-linecap="round" stroke-width="3" /><path d="M120.24620381065662,451.9008478794835 L189.9888692624287,343.3791421442611" fill="none" stroke="white" stroke-linecap="round" stroke-width="3" /><path d="M150.84514388041367,299.89303065463287 A111.00000000000001,111.00000000000001 0 0 0 189.9888692624287,343.3791421442611" fill="none" stroke="white" stroke-linecap="round" stroke-width="3" /><path d="M122.41675564969984,241.41139446408164 L139.25065594592002,242.54461325007088" fill="none" stroke="white" stroke-linecap="round" stroke-width="3" /><path d="M150.84514388041367,299.89303065463287 A111.00000000000001,111.00000000000001 0 0 1 139.25065594592002,242.54461325007088" fill="none" stroke="white" stroke-linecap="round" stroke-width="3" /><path d="M379.7537961893434,451.9008478794835 L323.76503313364174,364.78063201948635" fill="none" stroke="white" stroke-linecap="round" stroke-width="3" /><path d="M311.07289214095647,372.008095819659 A136.43999999999997,136.43999999999997 0 0 0 323.76503313364174,364.78063201948635" fill="none" stroke="white" stroke-linecap="round" stroke-width="3" /><path d="M300.5828432118919,385.61785099536553 L297.68089266450096,377.8374204789675" fill="none" stroke="white" stroke-linecap="round" stroke-width="3" /><path d="M311.07289214095647,372.008095819659 A136.43999999999997,136.43999999999997 0 0 1 297.68089266450096,377.8374204789675" fill="none" stroke="white" stroke-linecap="round" stroke-width="3" /><path d="M119.71159004138167,309.50072314228623 L133.68353749002705,303.1199485425773" fill="none" stroke="white" stroke-linecap="round" stroke-width="3" /><path d="M122.41675564969984,241.41139446408164 A127.87200000000003,127.87200000000003 0 0 0 133.68353749002705,303.1199485425773" fill="none" stroke="white" stroke-linecap="round" stroke-width="3" /><path d="M128.3341239235264,173.240874584554 L141.85255459869012,181.76966629738135" fill="none" stroke="white" stroke-linecap="round" stroke-width="3" /><path d="M122.41675564969984,241.41139446408164 A127.87200000000003,127.87200000000003 0 0 1 141.85255459869012,181.76966629738135" fill="none" stroke="white" stroke-linecap="round" stroke-width="3" /><path d="M349.69960312045276,468.31167888508435 L310.12883064194506,381.6637735355944" fill="none" stroke="white" stroke-linecap="round" stroke-width="3" /><path d="M300.5828432118919,385.61785099536553 A144.744,144.744 0 0 0 310.12883064194506,381.6637735355944" fill="none" stroke="white" stroke-linecap="round" stroke-width="3" /><path d="M317.6158136419431,480.27831366747944 L290.7790972074559,388.8808509728568" fill="none" stroke="white" stroke-linecap="round" stroke-width="3" /><path d="M300.5828432118919,385.61785099536553 A144.744,144.744 0 0 1 290.7790972074559,388.8808509728568" fill="none" stroke="white" stroke-linecap="round" stroke-width="3" /><path d="M131.39821407457418,338.78418484898907 L135.336876979922,335.83573872975325" fill="none" stroke="white" stroke-linecap="round" stroke-width="3" /><path d="M119.71159004138167,309.50072314228623 A143.23199999999997,143.23199999999997 0 0 0 135.336876979922,335.83573872975325" fill="none" stroke="white" stroke-linecap="round" stroke-width="3" /><path d="M88.25483356952591,285.1855072491252 L110.0413000932189,280.44615155325204" fill="none" stroke="white" stroke-linecap="round" stroke-width="3" /><path d="M119.71159004138167,309.50072314228623 A143.23199999999997,143.23199999999997 0 0 1 110.0413000932189,280.44615155325204" fill="none" stroke="white" stroke-linecap="round" stroke-width="3" /><path d="M10.0,250.00000000000003 L106.14399999999998,250.00000000000003" fill="none" stroke="white" stroke-linecap="round" stroke-width="3" /><path d="M128.3341239235264,173.240874584554 A143.856,143.856 0 0 0 106.14399999999998,250.00000000000003" fill="none" stroke="white" stroke-linecap="round" stroke-width="3" /><path d="M183.06747604272653,109.6999004251636 L188.05873882972097,120.1622978459828" fill="none" stroke="white" stroke-linecap="round" stroke-width="3" /><path d="M128.3341239235264,173.240874584554 A143.856,143.856 0 0 1 188.05873882972097,120.1622978459828" fill="none" stroke="white" stroke-linecap="round" stroke-width="3" /><path d="M129.86538630353033,370.1346136964697 L145.24071615365062,354.7592838463494" fill="none" stroke="white" stroke-linecap="round" stroke-width="3" /><path d="M131.39821407457418,338.78418484898907 A148.152,148.152 0 0 0 145.24071615365062,354.7592838463494" fill="none" stroke="white" stroke-linecap="round" stroke-width="3" /><path d="M101.55990785246922,331.0544226259898 L119.970102337632,321.0016958805499" fill="none" stroke="white" stroke-linecap="round" stroke-width="3" /><path d="M131.39821407457418,338.78418484898907 A148.152,148.152 0 0 1 119.970102337632,321.0016958805499" fill="none" stroke="white" stroke-linecap="round" stroke-width="3" /><path d="M19.72168633252062,317.61581364194325 L91.17704706353945,296.6346266688482" fill="none" stroke="white" stroke-linecap="round" stroke-width="3" /><path d="M88.25483356952591,285.1855072491252 A165.528,165.528 0 0 0 91.17704706353945,296.6346266688482" fill="none" stroke="white" stroke-linecap="round" stroke-width="3" /><path d="M12.442853948576186,284.15556118558845 L86.15683636833299,273.5570905497003" fill="none" stroke="white" stroke-linecap="round" stroke-width="3" /><path d="M88.25483356952591,285.1855072491252 A165.528,165.528 0 0 1 86.15683636833299,273.5570905497003" fill="none" stroke="white" stroke-linecap="round" stroke-width="3" /><path d="M46.799883566618036,161.55021686029977 L107.46944399620801,187.95871286594775" fill="none" stroke="white" stroke-linecap="round" stroke-width="3" /><path d="M183.06747604272653,109.6999004251636 A155.44799999999998,155.44799999999998 0 0 0 107.46944399620801,187.95871286594775" fill="none" stroke="white" stroke-linecap="round" stroke-width="3" /><path d="M294.9357653793709,87.62300843478425 L291.45996472395797,100.18293812423042" fill="none" stroke="white" stroke-linecap="round" stroke-width="3" /><path d="M183.06747604272653,109.6999004251636 A155.44799999999998,155.44799999999998 0 0 1 291.45996472395797,100.18293812423042" fill="none" stroke="white" stroke-linecap="round" stroke-width="3" /><path d="M92.83342385313159,431.379897845022 L138.74178074563187,378.3988296844911" fill="none" stroke="white" stroke-linecap="round" stroke-width="3" /><path d="M129.86538630353033,370.1346136964697 A169.89600000000002,169.89600000000002 0 0 0 138.74178074563187,378.3988296844911" fill="none" stroke="white" stroke-linecap="round" stroke-width="3" /><path d="M68.62010215497801,407.16657614686847 L121.60117031550894,361.25821925436816" fill="none" stroke="white" stroke-linecap="round" stroke-width="3" /><path d="M129.86538630353033,370.1346136964697 A169.89600000000002,169.89600000000002 0 0 1 121.60117031550894,361.25821925436816" fill="none" stroke="white" stroke-linecap="round" stroke-width="3" /><path d="M48.09915212051649,379.75379618934335 L107.72047249932797,341.43750017463026" fill="none" stroke="white" stroke-linecap="round" stroke-width="3" /><path d="M101.55990785246922,331.0544226259898 A169.128,169.128 0 0 0 107.72047249932797,341.43750017463026" fill="none" stroke="white" stroke-linecap="round" stroke-width="3" /><path d="M31.688321114915652,349.6996031204528 L96.15575988968106,320.2583103189831" fill="none" stroke="white" stroke-linecap="round" stroke-width="3" /><path d="M101.55990785246922,331.0544226259898 A169.128,169.128 0 0 1 96.15575988968106,320.2583103189831" fill="none" stroke="white" stroke-linecap="round" stroke-width="3" /><path d="M31.384490222849166,194.20171811895557 L35.26799092838945,195.19292257317687" fill="none" stroke="white" stroke-linecap="round" stroke-width="3" /><path d="M46.799883566618036,161.55021686029977 A221.61599999999996,221.61599999999996 0 0 0 35.26799092838945,195.19292257317687" fill="none" stroke="white" stroke-linecap="round" stroke-width="3" /><path d="M48.09915212051652,120.24620381065662 L63.56475706808496,130.1853445987603" fill="none" stroke="white" stroke-linecap="round" stroke-width="3" /><path d="M46.799883566618036,161.55021686029977 A221.61599999999996,221.61599999999996 0 0 1 63.56475706808496,130.1853445987603" fill="none" stroke="white" stroke-linecap="round" stroke-width="3" /><path d="M233.86228338014703,60.12454686743388 L235.7321447517169,82.1252290943811" fill="none" stroke="white" stroke-linecap="round" stroke-width="3" /><path d="M294.9357653793709,87.62300843478425 A168.48000000000005,168.48000000000005 0 0 0 235.7321447517169,82.1252290943811" fill="none" stroke="white" stroke-linecap="round" stroke-width="3" /><path d="M374.83495297392415,76.88312289092624 L348.542828053182,113.34414963390333" fill="none" stroke="white" stroke-linecap="round" stroke-width="3" /><path d="M294.9357653793709,87.62300843478425 A168.48000000000005,168.48000000000005 0 0 1 348.542828053182,113.34414963390333" fill="none" stroke="white" stroke-linecap="round" stroke-width="3" /><path d="M12.442853948576186,215.8444388144115 L26.67252699705645,217.89035692942826" fill="none" stroke="white" stroke-linecap="round" stroke-width="3" /><path d="M31.384490222849166,194.20171811895557 A225.62400000000002,225.62400000000002 0 0 0 26.67252699705645,217.89035692942826" fill="none" stroke="white" stroke-linecap="round" stroke-width="3" /><path d="M36.87017215485423,170.50668413823388 L38.60165524665376,171.152493942133" fill="none" stroke="white" stroke-linecap="round" stroke-width="3" /><path d="M31.384490222849166,194.20171811895557 A225.62400000000002,225.62400000000002 0 0 1 38.60165524665376,171.152493942133" fill="none" stroke="white" stroke-linecap="round" stroke-width="3" /><path d="M188.81158349482493,60.531320526084755 L191.43731592923214,68.66184727303676" fill="none" stroke="white" stroke-linecap="round" stroke-width="3" /><path d="M233.86228338014703,60.12454686743388 A190.55999999999997,190.55999999999997 0 0 0 191.43731592923214,68.66184727303676" fill="none" stroke="white" stroke-linecap="round" stroke-width="3" /><path d="M284.15556118558834,12.442853948576158 L277.1195155813572,61.37962603516945" fill="none" stroke="white" stroke-linecap="round" stroke-width="3" /><path d="M233.86228338014703,60.12454686743388 A190.55999999999997,190.55999999999997 0 0 1 277.1195155813572,61.37962603516945" fill="none" stroke="white" stroke-linecap="round" stroke-width="3" /><path d="M348.30748214281334,53.60666933233085 L345.535836378105,59.14371220330219" fill="none" stroke="white" stroke-linecap="round" stroke-width="3" /><path d="M374.83495297392415,76.88312289092624 A213.43200000000002,213.43200000000002 0 0 0 345.535836378105,59.14371220330219" fill="none" stroke="white" stroke-linecap="round" stroke-width="3" /><path d="M412.4252560656745,87.57474393432511 L400.9192145222071,99.08078547779263" fill="none" stroke="white" stroke-linecap="round" stroke-width="3" /><path d="M374.83495297392415,76.88312289092624 A213.43200000000002,213.43200000000002 0 0 1 400.9192145222071,99.08078547779263" fill="none" stroke="white" stroke-linecap="round" stroke-width="3" /><path d="M19.72168633252062,182.3841863580568 L31.742214305963046,185.91373183016626" fill="none" stroke="white" stroke-linecap="round" stroke-width="3" /><path d="M36.87017215485423,170.50668413823388 A227.47199999999998,227.47199999999998 0 0 0 31.742214305963046,185.91373183016626" fill="none" stroke="white" stroke-linecap="round" stroke-width="3" /><path d="M31.688321114915567,150.30039687954735 L43.08419075271698,155.504716162435" fill="none" stroke="white" stroke-linecap="round" stroke-width="3" /><path d="M36.87017215485423,170.50668413823388 A227.47199999999998,227.47199999999998 0 0 1 43.08419075271698,155.504716162435" fill="none" stroke="white" stroke-linecap="round" stroke-width="3" /><path d="M141.64223652688744,74.58495802496017 L145.3630536872376,80.60840551450002" fill="none" stroke="white" stroke-linecap="round" stroke-width="3" /><path d="M188.81158349482493,60.531320526084755 A199.104,199.104 0 0 0 145.3630536872376,80.60840551450002" fill="none" stroke="white" stroke-linecap="round" stroke-width="3" /><path d="M234.7944811361827,37.399066483512115 L235.79608326829992,51.403294172640074" fill="none" stroke="white" stroke-linecap="round" stroke-width="3" /><path d="M188.81158349482493,60.531320526084755 A199.104,199.104 0 0 1 235.79608326829992,51.403294172640074" fill="none" stroke="white" stroke-linecap="round" stroke-width="3" /><path d="M331.86687656960316,30.506409622655838 L326.7507209802724,44.223353596652345" fill="none" stroke="white" stroke-linecap="round" stroke-width="3" /><path d="M348.30748214281334,53.60666933233085 A219.624,219.624 0 0 0 326.7507209802724,44.223353596652345" fill="none" stroke="white" stroke-linecap="round" stroke-width="3" /><path d="M379.75379618934346,48.09915212051658 L368.7376988928682,65.2405341054847" fill="none" stroke="white" stroke-linecap="round" stroke-width="3" /><path d="M348.30748214281334,53.60666933233085 A219.624,219.624 0 0 1 368.7376988928682,65.2405341054847" fill="none" stroke="white" stroke-linecap="round" stroke-width="3" /><path d="M407.1665761468683,68.62010215497787 L400.4241300301676,76.40129977252934" fill="none" stroke="white" stroke-linecap="round" stroke-width="3" /><path d="M412.4252560656745,87.57474393432511 A229.70399999999998,229.70399999999998 0 0 0 400.4241300301676,76.40129977252934" fill="none" stroke="white" stroke-linecap="round" stroke-width="3" /><path d="M431.3798978450219,92.83342385313148 L423.59870022747043,99.57586996983213" fill="none" stroke="white" stroke-linecap="round" stroke-width="3" /><path d="M412.4252560656745,87.57474393432511 A229.70399999999998,229.70399999999998 0 0 1 423.59870022747043,99.57586996983213" fill="none" stroke="white" stroke-linecap="round" stroke-width="3" /><path d="M102.19227188680989,91.24329540451754 L109.50252354277316,99.09505983848308" fill="none" stroke="white" stroke-linecap="round" stroke-width="3" /><path d="M141.64223652688744,74.58495802496017 A206.18399999999997,206.18399999999997 0 0 0 109.50252354277316,99.09505983848308" fill="none" stroke="white" stroke-linecap="round" stroke-width="3" /><path d="M175.68154970973725,50.74452368265071 L177.94607759353943,56.81595790064915" fill="none" stroke="white" stroke-linecap="round" stroke-width="3" /><path d="M141.64223652688744,74.58495802496017 A206.18399999999997,206.18399999999997 0 0 1 177.94607759353943,56.81595790064915" fill="none" stroke="white" stroke-linecap="round" stroke-width="3" /><path d="M215.84443881441155,12.442853948576186 L219.6664461110789,39.025498591730496" fill="none" stroke="white" stroke-linecap="round" stroke-width="3" /><path d="M234.7944811361827,37.399066483512115 A213.144,213.144 0 0 0 219.6664461110789,39.025498591730496" fill="none" stroke="white" stroke-linecap="round" stroke-width="3" /><path d="M249.99999999999994,10.0 L249.99999999999997,36.855999999999995" fill="none" stroke="white" stroke-linecap="round" stroke-width="3" /><path d="M234.7944811361827,37.399066483512115 A213.144,213.144 0 0 1 249.99999999999997,36.855999999999995" fill="none" stroke="white" stroke-linecap="round" stroke-width="3" /><path d="M317.61581364194325,19.72168633252062 L315.99979569590084,25.2253380291734" fill="none" stroke="white" stroke-linecap="round" stroke-width="3" /><path d="M331.86687656960316,30.506409622655838 A234.26399999999998,234.26399999999998 0 0 0 315.99979569590084,25.2253380291734" fill="none" stroke="white" stroke-linecap="round" stroke-width="3" /><path d="M349.6996031204528,31.68832111491568 L347.31678260587404,36.9059702402692" fill="none" stroke="white" stroke-linecap="round" stroke-width="3" /><path d="M331.86687656960316,30.506409622655838 A234.26399999999998,234.26399999999998 0 0 1 347.31678260587404,36.9059702402692" fill="none" stroke="white" stroke-linecap="round" stroke-width="3" /><path d="M68.62010215497796,92.83342385313159 L86.06884832766906,107.95284847846034" fill="none" stroke="white" stroke-linecap="round" stroke-width="3" /><path d="M102.19227188680989,91.24329540451754 A216.912,216.912 0 0 0 86.06884832766906,107.95284847846034" fill="none" stroke="white" stroke-linecap="round" stroke-width="3" /><path d="M116.60079143457415,71.79951977023737 L120.00948280169067,76.35299834861513" fill="none" stroke="white" stroke-linecap="round" stroke-width="3" /><path d="M102.19227188680989,91.24329540451754 A216.912,216.912 0 0 1 120.00948280169067,76.35299834861513" fill="none" stroke="white" stroke-linecap="round" stroke-width="3" /><path d="M150.3003968795473,31.688321114915624 L161.65618167496683,56.55402133992675" fill="none" stroke="white" stroke-linecap="round" stroke-width="3" /><path d="M175.68154970973725,50.74452368265071 A212.664,212.664 0 0 0 161.65618167496683,56.55402133992675" fill="none" stroke="white" stroke-linecap="round" stroke-width="3" /><path d="M182.38418635805687,19.72168633252062 L190.0856275318742,45.9503862592465" fill="none" stroke="white" stroke-linecap="round" stroke-width="3" /><path d="M175.68154970973725,50.74452368265071 A212.664,212.664 0 0 1 190.0856275318742,45.9503862592465" fill="none" stroke="white" stroke-linecap="round" stroke-width="3" /><path d="M92.83342385313153,68.62010215497801 L104.22800062377951,81.7701447487421" fill="none" stroke="white" stroke-linecap="round" stroke-width="3" /><path d="M116.60079143457415,71.79951977023737 A222.60000000000002,222.60000000000002 0 0 0 104.22800062377951,81.7701447487421" fill="none" stroke="white" stroke-linecap="round" stroke-width="3" /><path d="M120.24620381065662,48.09915212051649 L129.653354034384,62.736963591779045" fill="none" stroke="white" stroke-linecap="round" stroke-width="3" /><path d="M116.60079143457415,71.79951977023737 A222.60000000000002,222.60000000000002 0 0 1 129.653354034384,62.736963591779045" fill="none" stroke="white" stroke-linecap="round" stroke-width="3" /></svg>